<svg xmlns="http://www.w3.org/2000/svg" width="512" height="512" viewBox="0 0 512 512">
    <rect width="512" height="512" rx="113" fill="#4E2A18"/>
    <g transform="translate(102.4, 102.4) scale(3.072)">
      <!-- Rudu Farm Milk Splash / Logo Symbol -->
      <path d="M50 15 C 30 15, 15 35, 15 55 C 15 75, 30 85, 50 85 C 70 85, 85 75, 85 55 C 85 35, 70 15, 50 15 Z" fill="#FFFFFF" opacity="0.95"/>
      <path d="M50 25 C 40 25, 30 38, 30 52 C 30 66, 40 75, 50 75 C 60 75, 70 66, 70 52 C 70 38, 60 25, 50 25 Z" fill="#22C55E" opacity="0.9"/>
      <circle cx="50" cy="48" r="12" fill="#FFFFFF"/>
    </g>
    <text x="50%" y="82%" font-family="system-ui, sans-serif" font-weight="900" font-size="61px" fill="#FFFFFF" text-anchor="middle">RUDU</text>
  </svg>